<?xml version="1.0" encoding="utf-8"?>
<!-- Generator: Adobe Illustrator 24.0.0, SVG Export Plug-In . SVG Version: 6.00 Build 0)  -->
<svg version="1.1" id="Layer_1" xmlns="http://www.w3.org/2000/svg" xmlns:xlink="http://www.w3.org/1999/xlink" x="0px" y="0px"
	 viewBox="0 0 800 566.6" style="enable-background:new 0 0 800 566.6;" xml:space="preserve">
<style type="text/css">
	.st0{fill-rule:evenodd;clip-rule:evenodd;fill:url(#Youtube_1_);}
</style>
<title>Youtube-color</title>
<desc>Created with Sketch.</desc>
<g id="Icons">
	<g id="Color-" transform="translate(-200.000000, -368.000000)">
		
			<linearGradient id="Youtube_1_" gradientUnits="userSpaceOnUse" x1="399.9" y1="283.45" x2="1199.901" y2="283.45" gradientTransform="matrix(1 0 0 -1 -200 934.8)">
			<stop  offset="0" style="stop-color:#FA2C05"/>
			<stop  offset="0.4907" style="stop-color:#F637E3"/>
			<stop  offset="1" style="stop-color:#8514F5"/>
		</linearGradient>
		<path id="Youtube" class="st0" d="M517.4,755.9V529.5l216.2,113.6L517.4,755.9z M992,490.3c0,0-7.8-55.5-31.8-80
			c-30.4-32.1-64.5-32.3-80.2-34.1C768.1,368,600.1,368,600.1,368h-0.3c0,0-167.9,0-279.9,8.2c-15.7,1.9-49.7,2-80.2,34.1
			c-24,24.4-31.8,80-31.8,80s-8,65.2-8,130.4v61.1c0,65.2,8,130.4,8,130.4s7.8,55.5,31.8,80c30.4,32.1,70.4,31.1,88.2,34.4
			c64,6.2,272,8.1,272,8.1s168.1-0.3,280-8.4c15.6-1.9,49.7-2,80.2-34.1c24-24.4,31.8-80,31.8-80s8-65.2,8-130.4v-61.1
			C1000,555.5,992,490.3,992,490.3L992,490.3z"/>
	</g>
</g>
</svg>
